<svg width="403" height="625" viewBox="0 0 403 625" fill="none" xmlns="http://www.w3.org/2000/svg">
<g filter="url(#filter0_d)">
<path d="M59 87C59 69.3269 73.3269 55 91 55H311.9C329.573 55 343.9 69.3269 343.9 87V529.489C343.9 547.162 329.573 561.489 311.9 561.489H91C73.3268 561.489 59 547.162 59 529.489V87Z" fill="white"/>
<mask id="mask0" mask-type="alpha" maskUnits="userSpaceOnUse" x="66" y="63" width="270" height="468">
<path d="M66.5698 95.3278C66.5698 77.616 80.9281 63.2578 98.6398 63.2578H303.572C321.284 63.2578 335.642 77.616 335.642 95.3278V498.451C335.642 516.163 321.284 530.521 303.572 530.521H98.6399C80.9281 530.521 66.5698 516.163 66.5698 498.451V95.3278Z" fill="white"/>
</mask>
<g mask="url(#mask0)">
<rect x="59" y="55" width="284.9" height="506.489" fill="url(#paint0_linear)"/>
<ellipse opacity="0.1" cx="201.45" cy="308.245" rx="156.213" ry="156.213" fill="white"/>
<ellipse opacity="0.1" cx="201.45" cy="308.245" rx="99.7838" ry="99.7838" fill="white"/>
<path d="M174.711 346.784V336.427H176.404V345.332H180.789V346.784H174.711ZM189.347 342.853C189.347 344.132 189.018 345.131 188.362 345.849C187.705 346.567 186.792 346.926 185.62 346.926C184.888 346.926 184.241 346.761 183.679 346.43C183.117 346.099 182.685 345.625 182.383 345.006C182.081 344.387 181.93 343.67 181.93 342.853C181.93 341.582 182.256 340.59 182.907 339.877C183.559 339.164 184.478 338.808 185.663 338.808C186.796 338.808 187.694 339.174 188.355 339.906C189.016 340.633 189.347 341.615 189.347 342.853ZM183.644 342.853C183.644 344.661 184.312 345.566 185.649 345.566C186.971 345.566 187.632 344.661 187.632 342.853C187.632 341.063 186.966 340.168 185.635 340.168C184.936 340.168 184.428 340.399 184.112 340.862C183.8 341.325 183.644 341.988 183.644 342.853ZM196.168 346.784L195.835 345.693H195.779C195.401 346.17 195.021 346.496 194.638 346.671C194.256 346.841 193.765 346.926 193.165 346.926C192.395 346.926 191.793 346.718 191.358 346.302C190.929 345.887 190.714 345.299 190.714 344.539C190.714 343.731 191.014 343.122 191.613 342.711C192.213 342.3 193.127 342.076 194.355 342.038L195.708 341.995V341.577C195.708 341.077 195.59 340.704 195.354 340.458C195.122 340.208 194.761 340.083 194.27 340.083C193.868 340.083 193.484 340.142 193.115 340.26C192.747 340.378 192.393 340.517 192.053 340.678L191.514 339.488C191.939 339.266 192.404 339.098 192.91 338.985C193.415 338.867 193.892 338.808 194.341 338.808C195.337 338.808 196.088 339.025 196.593 339.459C197.103 339.894 197.359 340.576 197.359 341.507V346.784H196.168ZM193.689 345.651C194.294 345.651 194.778 345.483 195.141 345.148C195.51 344.808 195.694 344.333 195.694 343.724V343.044L194.688 343.086C193.904 343.115 193.332 343.247 192.974 343.483C192.619 343.714 192.442 344.071 192.442 344.553C192.442 344.902 192.546 345.174 192.754 345.367C192.962 345.556 193.273 345.651 193.689 345.651ZM202.324 346.926C201.347 346.926 200.584 346.572 200.036 345.863C199.488 345.155 199.214 344.161 199.214 342.881C199.214 341.596 199.491 340.598 200.043 339.884C200.601 339.167 201.37 338.808 202.353 338.808C203.382 338.808 204.166 339.188 204.705 339.948H204.79C204.709 339.386 204.669 338.942 204.669 338.616V335.762H206.341V346.784H205.037L204.747 345.757H204.669C204.135 346.536 203.354 346.926 202.324 346.926ZM202.771 345.58C203.455 345.58 203.954 345.389 204.265 345.006C204.577 344.619 204.738 343.993 204.747 343.129V342.895C204.747 341.908 204.586 341.207 204.265 340.791C203.944 340.376 203.441 340.168 202.756 340.168C202.171 340.168 201.72 340.406 201.403 340.883C201.087 341.356 200.929 342.031 200.929 342.909C200.929 343.778 201.082 344.442 201.389 344.9C201.696 345.353 202.157 345.58 202.771 345.58ZM210.386 346.784H208.721V338.949H210.386V346.784ZM208.622 336.874C208.622 336.576 208.702 336.347 208.863 336.187C209.028 336.026 209.262 335.946 209.564 335.946C209.857 335.946 210.084 336.026 210.244 336.187C210.409 336.347 210.492 336.576 210.492 336.874C210.492 337.157 210.409 337.381 210.244 337.547C210.084 337.707 209.857 337.788 209.564 337.788C209.262 337.788 209.028 337.707 208.863 337.547C208.702 337.381 208.622 337.157 208.622 336.874ZM219.666 346.784H217.994V341.967C217.994 341.363 217.871 340.912 217.626 340.614C217.385 340.317 217 340.168 216.471 340.168C215.767 340.168 215.252 340.376 214.927 340.791C214.601 341.207 214.438 341.903 214.438 342.881V346.784H212.773V338.949H214.077L214.31 339.977H214.395C214.631 339.603 214.967 339.315 215.401 339.112C215.836 338.909 216.317 338.808 216.846 338.808C218.726 338.808 219.666 339.764 219.666 341.677V346.784ZM228.599 338.949V339.863L227.26 340.111C227.383 340.276 227.484 340.479 227.564 340.72C227.645 340.961 227.685 341.216 227.685 341.485C227.685 342.293 227.406 342.928 226.849 343.391C226.292 343.854 225.524 344.085 224.547 344.085C224.296 344.085 224.07 344.066 223.867 344.029C223.508 344.25 223.328 344.51 223.328 344.808C223.328 344.987 223.411 345.122 223.576 345.212C223.746 345.301 224.055 345.346 224.504 345.346H225.871C226.736 345.346 227.392 345.53 227.841 345.899C228.289 346.267 228.514 346.798 228.514 347.493C228.514 348.38 228.148 349.065 227.416 349.547C226.684 350.029 225.626 350.269 224.242 350.269C223.175 350.269 222.36 350.081 221.798 349.703C221.236 349.325 220.955 348.787 220.955 348.088C220.955 347.606 221.106 347.2 221.408 346.869C221.715 346.543 222.143 346.317 222.691 346.189C222.469 346.095 222.284 345.944 222.138 345.736C221.996 345.523 221.926 345.301 221.926 345.07C221.926 344.777 222.008 344.529 222.173 344.326C222.339 344.123 222.584 343.922 222.91 343.724C222.504 343.549 222.173 343.266 221.918 342.874C221.668 342.477 221.543 342.014 221.543 341.485C221.543 340.635 221.81 339.977 222.343 339.509C222.882 339.041 223.647 338.808 224.639 338.808C224.861 338.808 225.092 338.824 225.333 338.857C225.578 338.886 225.763 338.916 225.885 338.949H228.599ZM222.443 348.003C222.443 348.362 222.603 348.638 222.924 348.831C223.25 349.025 223.706 349.122 224.292 349.122C225.198 349.122 225.874 348.992 226.318 348.732C226.761 348.473 226.983 348.128 226.983 347.698C226.983 347.358 226.861 347.115 226.615 346.968C226.374 346.827 225.923 346.756 225.262 346.756H224.001C223.524 346.756 223.144 346.867 222.861 347.089C222.582 347.315 222.443 347.62 222.443 348.003ZM223.158 341.485C223.158 341.977 223.283 342.354 223.534 342.619C223.789 342.883 224.152 343.016 224.624 343.016C225.588 343.016 226.07 342.501 226.07 341.471C226.07 340.961 225.949 340.569 225.708 340.295C225.472 340.017 225.111 339.877 224.624 339.877C224.143 339.877 223.777 340.014 223.526 340.288C223.281 340.562 223.158 340.961 223.158 341.485Z" fill="white"/>
<path opacity="0.2" d="M193.309 264.839C196.978 258.66 205.923 258.66 209.592 264.839L222.511 286.599C227.427 294.88 218.28 304.359 209.829 299.741L205.99 297.644C203.161 296.098 199.739 296.098 196.91 297.644L193.071 299.741C184.62 304.359 175.473 294.88 180.39 286.599L193.309 264.839Z" stroke="white" stroke-width="1.90893"/>
<path d="M193.309 264.839C196.978 258.66 205.923 258.66 209.592 264.839L222.511 286.599C227.427 294.88 218.28 304.359 209.829 299.741L205.99 297.644C203.161 296.098 199.739 296.098 196.91 297.644L193.071 299.741C184.62 304.359 175.473 294.88 180.39 286.599L193.309 264.839Z" stroke="url(#paint1_angular)" stroke-width="1.90893"/>
<path d="M98.2252 89.7636H101.033V93.5949C100.574 93.7445 100.132 93.8506 99.7076 93.9133C99.2866 93.9759 98.8307 94.0072 98.3401 94.0072C97.1848 94.0072 96.2939 93.6662 95.6676 92.9842C95.0412 92.2986 94.728 91.333 94.728 90.0872C94.728 88.8588 95.0812 87.8984 95.7876 87.2059C96.494 86.51 97.4666 86.162 98.7055 86.162C99.5023 86.162 100.257 86.3151 100.971 86.6213L100.532 87.66C99.913 87.3747 99.2935 87.232 98.6741 87.232C97.8599 87.232 97.2161 87.4878 96.7428 87.9993C96.2696 88.5109 96.033 89.2103 96.033 90.0976C96.033 91.0302 96.2452 91.7401 96.6698 92.2273C97.0978 92.711 97.712 92.9528 98.5123 92.9528C98.916 92.9528 99.3475 92.9024 99.8068 92.8015V90.8336H98.2252V89.7636ZM105.261 94.0072C104.364 94.0072 103.661 93.7462 103.153 93.2243C102.648 92.6988 102.396 91.9768 102.396 91.0581C102.396 90.115 102.631 89.3738 103.1 88.8345C103.57 88.2951 104.216 88.0254 105.037 88.0254C105.799 88.0254 106.401 88.2568 106.843 88.7196C107.285 89.1825 107.506 89.8193 107.506 90.6301V91.293H103.659C103.676 91.8532 103.828 92.2847 104.113 92.5875C104.398 92.8867 104.8 93.0364 105.319 93.0364C105.66 93.0364 105.977 93.005 106.269 92.9424C106.565 92.8763 106.881 92.7684 107.219 92.6188V93.6157C106.92 93.7584 106.617 93.8593 106.311 93.9185C106.004 93.9776 105.655 94.0072 105.261 94.0072ZM105.037 88.9545C104.647 88.9545 104.334 89.0781 104.097 89.3251C103.864 89.5722 103.725 89.9324 103.68 90.4056H106.3C106.293 89.9289 106.178 89.5687 105.956 89.3251C105.733 89.0781 105.427 88.9545 105.037 88.9545ZM113.978 93.9028H112.747V90.3534C112.747 89.908 112.656 89.5757 112.475 89.3564C112.298 89.1372 112.014 89.0276 111.624 89.0276C111.106 89.0276 110.726 89.1807 110.486 89.4869C110.246 89.7932 110.126 90.3064 110.126 91.0268V93.9028H108.9V88.1298H109.86L110.032 88.8867H110.095C110.269 88.6118 110.516 88.3995 110.836 88.2499C111.156 88.1002 111.511 88.0254 111.901 88.0254C113.286 88.0254 113.978 88.7301 113.978 90.1394V93.9028ZM118.206 94.0072C117.309 94.0072 116.606 93.7462 116.098 93.2243C115.593 92.6988 115.341 91.9768 115.341 91.0581C115.341 90.115 115.576 89.3738 116.045 88.8345C116.515 88.2951 117.161 88.0254 117.982 88.0254C118.744 88.0254 119.346 88.2568 119.788 88.7196C120.23 89.1825 120.451 89.8193 120.451 90.6301V91.293H116.604C116.621 91.8532 116.773 92.2847 117.058 92.5875C117.343 92.8867 117.745 93.0364 118.264 93.0364C118.605 93.0364 118.921 93.005 119.214 92.9424C119.51 92.8763 119.826 92.7684 120.164 92.6188V93.6157C119.865 93.7584 119.562 93.8593 119.256 93.9185C118.949 93.9776 118.6 94.0072 118.206 94.0072ZM117.982 88.9545C117.592 88.9545 117.279 89.0781 117.042 89.3251C116.809 89.5722 116.67 89.9324 116.625 90.4056H119.245C119.238 89.9289 119.123 89.5687 118.901 89.3251C118.678 89.0781 118.372 88.9545 117.982 88.9545ZM124.773 88.0254C125.02 88.0254 125.223 88.0428 125.383 88.0776L125.263 89.2207C125.089 89.179 124.908 89.1581 124.721 89.1581C124.23 89.1581 123.831 89.3182 123.525 89.6383C123.223 89.9585 123.071 90.3743 123.071 90.8858V93.9028H121.845V88.1298H122.805L122.967 89.1477H123.029C123.221 88.8032 123.47 88.53 123.776 88.3282C124.086 88.1263 124.418 88.0254 124.773 88.0254ZM130.071 93.9028L129.825 93.099H129.784C129.505 93.4505 129.225 93.6906 128.943 93.8193C128.661 93.9446 128.3 94.0072 127.858 94.0072C127.29 94.0072 126.847 93.8541 126.527 93.5479C126.21 93.2417 126.052 92.8084 126.052 92.2482C126.052 91.6531 126.273 91.2042 126.715 90.9015C127.156 90.5987 127.83 90.4335 128.735 90.4056L129.732 90.3743V90.0663C129.732 89.6975 129.645 89.4226 129.471 89.2416C129.3 89.0572 129.034 88.965 128.672 88.965C128.376 88.965 128.093 89.0085 127.821 89.0955C127.55 89.1825 127.289 89.2851 127.038 89.4034L126.641 88.5265C126.955 88.363 127.297 88.2394 127.67 88.1559C128.042 88.0689 128.394 88.0254 128.724 88.0254C129.458 88.0254 130.012 88.1855 130.384 88.5056C130.76 88.8258 130.948 89.3286 130.948 90.0141V93.9028H130.071ZM128.244 93.0677C128.689 93.0677 129.046 92.9441 129.314 92.6971C129.585 92.4465 129.721 92.0968 129.721 91.6479V91.1468L128.98 91.1781C128.402 91.199 127.981 91.2964 127.717 91.4704C127.456 91.6409 127.325 91.9037 127.325 92.2586C127.325 92.5161 127.402 92.7162 127.555 92.8589C127.708 92.9981 127.938 93.0677 128.244 93.0677ZM134.81 93.0155C135.11 93.0155 135.409 92.9685 135.708 92.8745V93.7984C135.572 93.8576 135.397 93.9063 135.181 93.9446C134.969 93.9863 134.748 94.0072 134.518 94.0072C133.356 94.0072 132.775 93.3948 132.775 92.1699V89.0589H131.986V88.5161L132.832 88.0672L133.25 86.8458H134.006V88.1298H135.651V89.0589H134.006V92.149C134.006 92.4448 134.08 92.664 134.226 92.8067C134.375 92.9459 134.57 93.0155 134.81 93.0155ZM138.094 93.9028H136.867V88.1298H138.094V93.9028ZM136.794 86.6004C136.794 86.3812 136.853 86.2124 136.971 86.0941C137.093 85.9758 137.265 85.9166 137.488 85.9166C137.704 85.9166 137.871 85.9758 137.989 86.0941C138.111 86.2124 138.172 86.3812 138.172 86.6004C138.172 86.8092 138.111 86.9745 137.989 87.0963C137.871 87.2146 137.704 87.2738 137.488 87.2738C137.265 87.2738 137.093 87.2146 136.971 87.0963C136.853 86.9745 136.794 86.8092 136.794 86.6004ZM144.931 93.9028H143.7V90.3534C143.7 89.908 143.609 89.5757 143.428 89.3564C143.251 89.1372 142.967 89.0276 142.577 89.0276C142.059 89.0276 141.679 89.1807 141.439 89.4869C141.199 89.7932 141.079 90.3064 141.079 91.0268V93.9028H139.853V88.1298H140.813L140.985 88.8867H141.048C141.222 88.6118 141.469 88.3995 141.789 88.2499C142.109 88.1002 142.464 88.0254 142.854 88.0254C144.239 88.0254 144.931 88.7301 144.931 90.1394V93.9028ZM151.513 88.1298V88.8032L150.527 88.9858C150.617 89.1076 150.692 89.2573 150.751 89.4347C150.811 89.6122 150.84 89.8001 150.84 89.9985C150.84 90.5935 150.635 91.0616 150.224 91.4026C149.814 91.7436 149.248 91.9141 148.528 91.9141C148.343 91.9141 148.176 91.9002 148.027 91.8724C147.762 92.0359 147.63 92.2273 147.63 92.4465C147.63 92.5788 147.691 92.6779 147.813 92.7441C147.938 92.8102 148.166 92.8432 148.496 92.8432H149.504C150.141 92.8432 150.624 92.9789 150.955 93.2504C151.286 93.5218 151.451 93.9133 151.451 94.4248C151.451 95.079 151.181 95.5836 150.642 95.9385C150.102 96.2935 149.323 96.4709 148.303 96.4709C147.517 96.4709 146.917 96.3317 146.503 96.0534C146.088 95.775 145.881 95.3783 145.881 94.8633C145.881 94.5083 145.993 94.2091 146.215 93.9655C146.442 93.7254 146.757 93.5583 147.16 93.4644C146.997 93.3948 146.861 93.2834 146.753 93.1303C146.649 92.9737 146.596 92.8102 146.596 92.6397C146.596 92.4239 146.657 92.2412 146.779 92.0916C146.901 91.942 147.082 91.7941 147.322 91.6479C147.023 91.5192 146.779 91.3104 146.591 91.0215C146.407 90.7292 146.315 90.3882 146.315 89.9985C146.315 89.3721 146.511 88.8867 146.904 88.5422C147.301 88.1977 147.865 88.0254 148.596 88.0254C148.759 88.0254 148.93 88.0376 149.107 88.062C149.288 88.0828 149.424 88.1055 149.514 88.1298H151.513ZM146.978 94.8006C146.978 95.0651 147.096 95.2687 147.332 95.4113C147.573 95.554 147.908 95.6253 148.34 95.6253C149.008 95.6253 149.506 95.5296 149.833 95.3383C150.16 95.1469 150.323 94.8928 150.323 94.5762C150.323 94.3256 150.233 94.1464 150.052 94.0385C149.874 93.9342 149.542 93.882 149.055 93.882H148.126C147.774 93.882 147.494 93.9637 147.285 94.1273C147.08 94.2943 146.978 94.5188 146.978 94.8006ZM147.505 89.9985C147.505 90.3604 147.597 90.6388 147.781 90.8336C147.969 91.0285 148.237 91.1259 148.585 91.1259C149.295 91.1259 149.65 90.7466 149.65 89.988C149.65 89.6122 149.561 89.3234 149.384 89.1216C149.21 88.9163 148.944 88.8136 148.585 88.8136C148.23 88.8136 147.961 88.9145 147.776 89.1163C147.595 89.3182 147.505 89.6122 147.505 89.9985ZM158.978 93.9028L158.732 93.099H158.691C158.412 93.4505 158.132 93.6906 157.85 93.8193C157.568 93.9446 157.206 94.0072 156.765 94.0072C156.197 94.0072 155.754 93.8541 155.433 93.5479C155.117 93.2417 154.958 92.8084 154.958 92.2482C154.958 91.6531 155.179 91.2042 155.621 90.9015C156.063 90.5987 156.737 90.4335 157.641 90.4056L158.638 90.3743V90.0663C158.638 89.6975 158.551 89.4226 158.377 89.2416C158.207 89.0572 157.941 88.965 157.579 88.965C157.283 88.965 156.999 89.0085 156.728 89.0955C156.457 89.1825 156.196 89.2851 155.945 89.4034L155.548 88.5265C155.861 88.363 156.204 88.2394 156.577 88.1559C156.949 88.0689 157.3 88.0254 157.631 88.0254C158.365 88.0254 158.919 88.1855 159.291 88.5056C159.667 88.8258 159.855 89.3286 159.855 90.0141V93.9028H158.978ZM157.151 93.0677C157.596 93.0677 157.953 92.9441 158.221 92.6971C158.492 92.4465 158.628 92.0968 158.628 91.6479V91.1468L157.887 91.1781C157.309 91.199 156.888 91.2964 156.624 91.4704C156.363 91.6409 156.232 91.9037 156.232 92.2586C156.232 92.5161 156.309 92.7162 156.462 92.8589C156.615 92.9981 156.845 93.0677 157.151 93.0677ZM165.445 92.2586C165.445 92.8223 165.24 93.2556 164.829 93.5583C164.418 93.8576 163.83 94.0072 163.065 94.0072C162.296 94.0072 161.678 93.8907 161.212 93.6575V92.5979C161.89 92.9111 162.522 93.0677 163.106 93.0677C163.862 93.0677 164.239 92.8397 164.239 92.3839C164.239 92.2377 164.197 92.1159 164.114 92.0185C164.03 91.9211 163.893 91.8202 163.702 91.7158C163.51 91.6114 163.244 91.4931 162.903 91.3608C162.238 91.1033 161.788 90.8458 161.551 90.5883C161.318 90.3308 161.201 89.9967 161.201 89.5861C161.201 89.092 161.4 88.7092 161.796 88.4378C162.197 88.1629 162.739 88.0254 163.425 88.0254C164.103 88.0254 164.745 88.1629 165.351 88.4378L164.954 89.3617C164.331 89.1042 163.808 88.9754 163.383 88.9754C162.736 88.9754 162.412 89.1598 162.412 89.5287C162.412 89.7096 162.496 89.8628 162.663 89.988C162.833 90.1133 163.202 90.2856 163.769 90.5048C164.246 90.6892 164.592 90.858 164.808 91.0111C165.024 91.1642 165.184 91.3417 165.288 91.5435C165.393 91.7419 165.445 91.9802 165.445 92.2586ZM170.654 92.2586C170.654 92.8223 170.449 93.2556 170.038 93.5583C169.628 93.8576 169.04 94.0072 168.274 94.0072C167.505 94.0072 166.887 93.8907 166.421 93.6575V92.5979C167.1 92.9111 167.731 93.0677 168.316 93.0677C169.071 93.0677 169.448 92.8397 169.448 92.3839C169.448 92.2377 169.407 92.1159 169.323 92.0185C169.24 91.9211 169.102 91.8202 168.911 91.7158C168.719 91.6114 168.453 91.4931 168.112 91.3608C167.448 91.1033 166.997 90.8458 166.76 90.5883C166.527 90.3308 166.411 89.9967 166.411 89.5861C166.411 89.092 166.609 88.7092 167.006 88.4378C167.406 88.1629 167.949 88.0254 168.634 88.0254C169.313 88.0254 169.955 88.1629 170.56 88.4378L170.164 89.3617C169.541 89.1042 169.017 88.9754 168.592 88.9754C167.945 88.9754 167.622 89.1598 167.622 89.5287C167.622 89.7096 167.705 89.8628 167.872 89.988C168.043 90.1133 168.411 90.2856 168.979 90.5048C169.455 90.6892 169.802 90.858 170.017 91.0111C170.233 91.1642 170.393 91.3417 170.498 91.5435C170.602 91.7419 170.654 91.9802 170.654 92.2586ZM174.506 94.0072C173.609 94.0072 172.906 93.7462 172.398 93.2243C171.893 92.6988 171.641 91.9768 171.641 91.0581C171.641 90.115 171.876 89.3738 172.345 88.8345C172.815 88.2951 173.461 88.0254 174.282 88.0254C175.044 88.0254 175.646 88.2568 176.088 88.7196C176.53 89.1825 176.751 89.8193 176.751 90.6301V91.293H172.904C172.921 91.8532 173.073 92.2847 173.358 92.5875C173.643 92.8867 174.045 93.0364 174.564 93.0364C174.905 93.0364 175.221 93.005 175.514 92.9424C175.81 92.8763 176.126 92.7684 176.464 92.6188V93.6157C176.165 93.7584 175.862 93.8593 175.556 93.9185C175.249 93.9776 174.9 94.0072 174.506 94.0072ZM174.282 88.9545C173.892 88.9545 173.579 89.0781 173.342 89.3251C173.109 89.5722 172.97 89.9324 172.925 90.4056H175.545C175.538 89.9289 175.423 89.5687 175.201 89.3251C174.978 89.0781 174.672 88.9545 174.282 88.9545ZM180.295 93.0155C180.594 93.0155 180.894 92.9685 181.193 92.8745V93.7984C181.057 93.8576 180.881 93.9063 180.666 93.9446C180.453 93.9863 180.232 94.0072 180.003 94.0072C178.84 94.0072 178.259 93.3948 178.259 92.1699V89.0589H177.471V88.5161L178.317 88.0672L178.734 86.8458H179.491V88.1298H181.135V89.0589H179.491V92.149C179.491 92.4448 179.564 92.664 179.71 92.8067C179.86 92.9459 180.055 93.0155 180.295 93.0155ZM96.2 104.903H94.9734V96.7809H96.2V104.903ZM99.1857 104.903H97.959V99.1298H99.1857V104.903ZM97.886 97.6004C97.886 97.3812 97.9451 97.2124 98.0634 97.0941C98.1852 96.9758 98.3575 96.9166 98.5802 96.9166C98.7959 96.9166 98.963 96.9758 99.0813 97.0941C99.2031 97.2124 99.264 97.3812 99.264 97.6004C99.264 97.8092 99.2031 97.9745 99.0813 98.0963C98.963 98.2146 98.7959 98.2738 98.5802 98.2738C98.3575 98.2738 98.1852 98.2146 98.0634 98.0963C97.9451 97.9745 97.886 97.8092 97.886 97.6004ZM103.894 99.0254C104.614 99.0254 105.174 99.2864 105.575 99.8084C105.978 100.33 106.18 101.063 106.18 102.006C106.18 102.952 105.977 103.69 105.569 104.219C105.162 104.745 104.597 105.007 103.873 105.007C103.142 105.007 102.575 104.745 102.171 104.219H102.088L101.863 104.903H100.945V96.7809H102.171V98.7122C102.171 98.8549 102.164 99.0672 102.15 99.349C102.137 99.6309 102.126 99.8101 102.119 99.8867H102.171C102.561 99.3125 103.135 99.0254 103.894 99.0254ZM103.575 100.028C103.081 100.028 102.725 100.174 102.505 100.466C102.29 100.755 102.178 101.24 102.171 101.922V102.006C102.171 102.709 102.283 103.219 102.505 103.535C102.728 103.848 103.092 104.005 103.596 104.005C104.031 104.005 104.36 103.833 104.583 103.488C104.809 103.144 104.922 102.646 104.922 101.995C104.922 100.684 104.473 100.028 103.575 100.028ZM110.533 99.0254C110.78 99.0254 110.984 99.0428 111.144 99.0776L111.024 100.221C110.85 100.179 110.669 100.158 110.481 100.158C109.991 100.158 109.592 100.318 109.286 100.638C108.983 100.958 108.832 101.374 108.832 101.886V104.903H107.605V99.1298H108.566L108.727 100.148H108.79C108.981 99.8032 109.23 99.53 109.536 99.3282C109.846 99.1263 110.178 99.0254 110.533 99.0254ZM115.831 104.903L115.586 104.099H115.544C115.266 104.45 114.986 104.691 114.704 104.819C114.422 104.945 114.06 105.007 113.618 105.007C113.051 105.007 112.607 104.854 112.287 104.548C111.971 104.242 111.812 103.808 111.812 103.248C111.812 102.653 112.033 102.204 112.475 101.901C112.917 101.599 113.59 101.433 114.495 101.406L115.492 101.374V101.066C115.492 100.697 115.405 100.423 115.231 100.242C115.061 100.057 114.794 99.965 114.433 99.965C114.137 99.965 113.853 100.008 113.582 100.095C113.31 100.182 113.049 100.285 112.799 100.403L112.402 99.5265C112.715 99.363 113.058 99.2394 113.43 99.1559C113.803 99.0689 114.154 99.0254 114.485 99.0254C115.219 99.0254 115.772 99.1855 116.145 99.5056C116.52 99.8258 116.708 100.329 116.708 101.014V104.903H115.831ZM114.004 104.068C114.45 104.068 114.807 103.944 115.075 103.697C115.346 103.447 115.482 103.097 115.482 102.648V102.147L114.74 102.178C114.163 102.199 113.742 102.296 113.477 102.47C113.216 102.641 113.086 102.904 113.086 103.259C113.086 103.516 113.162 103.716 113.315 103.859C113.469 103.998 113.698 104.068 114.004 104.068ZM121.349 99.0254C121.596 99.0254 121.799 99.0428 121.959 99.0776L121.839 100.221C121.665 100.179 121.484 100.158 121.296 100.158C120.806 100.158 120.407 100.318 120.101 100.638C119.798 100.958 119.647 101.374 119.647 101.886V104.903H118.42V99.1298H119.381L119.543 100.148H119.605C119.797 99.8032 120.045 99.53 120.352 99.3282C120.661 99.1263 120.994 99.0254 121.349 99.0254ZM122.158 99.1298H123.494L124.668 102.403C124.846 102.869 124.964 103.307 125.023 103.718H125.065C125.096 103.527 125.154 103.295 125.237 103.024C125.321 102.749 125.763 101.451 126.563 99.1298H127.889L125.42 105.67C124.971 106.871 124.223 107.471 123.176 107.471C122.904 107.471 122.64 107.441 122.382 107.382V106.411C122.567 106.453 122.777 106.474 123.014 106.474C123.605 106.474 124.021 106.131 124.261 105.446L124.475 104.903L122.158 99.1298ZM94.7907 115.25C94.7907 114.996 94.8568 114.801 94.989 114.666C95.1212 114.53 95.3126 114.462 95.5632 114.462C95.8172 114.462 96.0103 114.534 96.1426 114.676C96.2748 114.815 96.3409 115.007 96.3409 115.25C96.3409 115.497 96.2731 115.694 96.1373 115.84C96.0051 115.983 95.8137 116.054 95.5632 116.054C95.3126 116.054 95.1212 115.983 94.989 115.84C94.8568 115.698 94.7907 115.501 94.7907 115.25ZM97.7346 115.25C97.7346 114.996 97.8007 114.801 97.9329 114.666C98.0652 114.53 98.2566 114.462 98.5071 114.462C98.7611 114.462 98.9543 114.534 99.0865 114.676C99.2187 114.815 99.2848 115.007 99.2848 115.25C99.2848 115.497 99.217 115.694 99.0813 115.84C98.949 115.983 98.7577 116.054 98.5071 116.054C98.2566 116.054 98.0652 115.983 97.9329 115.84C97.8007 115.698 97.7346 115.501 97.7346 115.25ZM100.679 115.25C100.679 114.996 100.745 114.801 100.877 114.666C101.009 114.53 101.2 114.462 101.451 114.462C101.705 114.462 101.898 114.534 102.03 114.676C102.163 114.815 102.229 115.007 102.229 115.25C102.229 115.497 102.161 115.694 102.025 115.84C101.893 115.983 101.702 116.054 101.451 116.054C101.2 116.054 101.009 115.983 100.877 115.84C100.745 115.698 100.679 115.501 100.679 115.25Z" fill="#547BEF"/>
<path d="M209.233 90.0768C209.233 91.3191 208.921 92.2847 208.298 92.9737C207.679 93.6627 206.8 94.0072 205.663 94.0072C204.511 94.0072 203.625 93.6662 203.006 92.9842C202.39 92.2986 202.082 91.326 202.082 90.0663C202.082 88.8066 202.391 87.8392 203.011 87.1642C203.634 86.4891 204.521 86.1515 205.673 86.1515C206.807 86.1515 207.684 86.4943 208.304 87.1798C208.923 87.8653 209.233 88.831 209.233 90.0768ZM203.408 90.0768C203.408 91.0163 203.597 91.7297 203.977 92.2169C204.356 92.7006 204.918 92.9424 205.663 92.9424C206.404 92.9424 206.962 92.7023 207.338 92.2221C207.717 91.7419 207.907 91.0268 207.907 90.0768C207.907 89.1407 207.719 88.4308 207.343 87.9471C206.971 87.4634 206.414 87.2216 205.673 87.2216C204.925 87.2216 204.359 87.4634 203.977 87.9471C203.597 88.4308 203.408 89.1407 203.408 90.0768ZM213.67 94.0072C212.939 94.0072 212.372 93.7445 211.968 93.219H211.895C211.944 93.7062 211.968 94.002 211.968 94.1064V96.4709H210.741V88.1298H211.733C211.761 88.2377 211.818 88.4952 211.905 88.9023H211.968C212.351 88.3177 212.925 88.0254 213.69 88.0254C214.411 88.0254 214.971 88.2864 215.371 88.8084C215.775 89.3303 215.977 90.0629 215.977 91.0059C215.977 91.9489 215.771 92.6849 215.361 93.2138C214.954 93.7428 214.39 94.0072 213.67 94.0072ZM213.372 89.0276C212.885 89.0276 212.528 89.1703 212.302 89.4556C212.079 89.741 211.968 90.1968 211.968 90.8232V91.0059C211.968 91.7088 212.079 92.2186 212.302 92.5353C212.525 92.8484 212.888 93.005 213.393 93.005C213.817 93.005 214.145 92.831 214.374 92.4831C214.604 92.1351 214.719 91.6392 214.719 90.9954C214.719 90.3482 214.604 89.8593 214.374 89.5287C214.148 89.1946 213.814 89.0276 213.372 89.0276ZM219.552 93.0155C219.851 93.0155 220.151 92.9685 220.45 92.8745V93.7984C220.314 93.8576 220.139 93.9063 219.923 93.9446C219.711 93.9863 219.49 94.0072 219.26 94.0072C218.098 94.0072 217.517 93.3948 217.517 92.1699V89.0589H216.728V88.5161L217.574 88.0672L217.992 86.8458H218.748V88.1298H220.393V89.0589H218.748V92.149C218.748 92.4448 218.821 92.664 218.968 92.8067C219.117 92.9459 219.312 93.0155 219.552 93.0155ZM222.835 93.9028H221.609V88.1298H222.835V93.9028ZM221.536 86.6004C221.536 86.3812 221.595 86.2124 221.713 86.0941C221.835 85.9758 222.007 85.9166 222.23 85.9166C222.446 85.9166 222.613 85.9758 222.731 86.0941C222.853 86.2124 222.914 86.3812 222.914 86.6004C222.914 86.8092 222.853 86.9745 222.731 87.0963C222.613 87.2146 222.446 87.2738 222.23 87.2738C222.007 87.2738 221.835 87.2146 221.713 87.0963C221.595 86.9745 221.536 86.8092 221.536 86.6004ZM229.459 93.9028H228.227V90.343C228.227 89.901 228.144 89.5722 227.977 89.3564C227.81 89.1372 227.549 89.0276 227.194 89.0276C226.721 89.0276 226.373 89.1825 226.15 89.4922C225.931 89.7984 225.821 90.3099 225.821 91.0268V93.9028H224.594V88.1298H225.555L225.727 88.8867H225.79C225.95 88.6118 226.181 88.3995 226.484 88.2499C226.79 88.1002 227.126 88.0254 227.491 88.0254C228.379 88.0254 228.967 88.3282 229.256 88.9336H229.339C229.51 88.6483 229.75 88.4256 230.06 88.2655C230.369 88.1055 230.724 88.0254 231.124 88.0254C231.813 88.0254 232.314 88.1994 232.628 88.5474C232.944 88.8954 233.103 89.426 233.103 90.1394V93.9028H231.876V90.343C231.876 89.901 231.791 89.5722 231.62 89.3564C231.453 89.1372 231.192 89.0276 230.837 89.0276C230.361 89.0276 230.011 89.1772 229.788 89.4765C229.569 89.7723 229.459 90.2281 229.459 90.8441V93.9028ZM236.041 93.9028H234.815V88.1298H236.041V93.9028ZM234.742 86.6004C234.742 86.3812 234.801 86.2124 234.919 86.0941C235.041 85.9758 235.213 85.9166 235.436 85.9166C235.652 85.9166 235.819 85.9758 235.937 86.0941C236.059 86.2124 236.12 86.3812 236.12 86.6004C236.12 86.8092 236.059 86.9745 235.937 87.0963C235.819 87.2146 235.652 87.2738 235.436 87.2738C235.213 87.2738 235.041 87.2146 234.919 87.0963C234.801 86.9745 234.742 86.8092 234.742 86.6004ZM241.658 93.9028H237.278V93.146L240.196 89.0694H237.456V88.1298H241.574V88.9858L238.719 92.9633H241.658V93.9028ZM244.142 93.9028H242.916V88.1298H244.142V93.9028ZM242.843 86.6004C242.843 86.3812 242.902 86.2124 243.02 86.0941C243.142 85.9758 243.314 85.9166 243.537 85.9166C243.753 85.9166 243.92 85.9758 244.038 86.0941C244.16 86.2124 244.221 86.3812 244.221 86.6004C244.221 86.8092 244.16 86.9745 244.038 87.0963C243.92 87.2146 243.753 87.2738 243.537 87.2738C243.314 87.2738 243.142 87.2146 243.02 87.0963C242.902 86.9745 242.843 86.8092 242.843 86.6004ZM250.98 93.9028H249.748V90.3534C249.748 89.908 249.658 89.5757 249.477 89.3564C249.299 89.1372 249.016 89.0276 248.626 89.0276C248.108 89.0276 247.728 89.1807 247.488 89.4869C247.248 89.7932 247.128 90.3064 247.128 91.0268V93.9028H245.901V88.1298H246.862L247.034 88.8867H247.097C247.271 88.6118 247.518 88.3995 247.838 88.2499C248.158 88.1002 248.513 88.0254 248.903 88.0254C250.288 88.0254 250.98 88.7301 250.98 90.1394V93.9028ZM257.562 88.1298V88.8032L256.576 88.9858C256.666 89.1076 256.741 89.2573 256.8 89.4347C256.859 89.6122 256.889 89.8001 256.889 89.9985C256.889 90.5935 256.684 91.0616 256.273 91.4026C255.862 91.7436 255.297 91.9141 254.577 91.9141C254.392 91.9141 254.225 91.9002 254.076 91.8724C253.811 92.0359 253.679 92.2273 253.679 92.4465C253.679 92.5788 253.74 92.6779 253.862 92.7441C253.987 92.8102 254.215 92.8432 254.545 92.8432H255.553C256.189 92.8432 256.673 92.9789 257.004 93.2504C257.334 93.5218 257.5 93.9133 257.5 94.4248C257.5 95.079 257.23 95.5836 256.691 95.9385C256.151 96.2935 255.372 96.4709 254.352 96.4709C253.566 96.4709 252.965 96.3317 252.551 96.0534C252.137 95.775 251.93 95.3783 251.93 94.8633C251.93 94.5083 252.042 94.2091 252.264 93.9655C252.49 93.7254 252.805 93.5583 253.209 93.4644C253.045 93.3948 252.91 93.2834 252.802 93.1303C252.698 92.9737 252.645 92.8102 252.645 92.6397C252.645 92.4239 252.706 92.2412 252.828 92.0916C252.95 91.942 253.131 91.7941 253.371 91.6479C253.072 91.5192 252.828 91.3104 252.64 91.0215C252.456 90.7292 252.363 90.3882 252.363 89.9985C252.363 89.3721 252.56 88.8867 252.953 88.5422C253.35 88.1977 253.914 88.0254 254.644 88.0254C254.808 88.0254 254.979 88.0376 255.156 88.062C255.337 88.0828 255.473 88.1055 255.563 88.1298H257.562ZM253.026 94.8006C253.026 95.0651 253.145 95.2687 253.381 95.4113C253.621 95.554 253.957 95.6253 254.389 95.6253C255.057 95.6253 255.554 95.5296 255.882 95.3383C256.209 95.1469 256.372 94.8928 256.372 94.5762C256.372 94.3256 256.282 94.1464 256.101 94.0385C255.923 93.9342 255.591 93.882 255.104 93.882H254.175C253.823 93.882 253.543 93.9637 253.334 94.1273C253.129 94.2943 253.026 94.5188 253.026 94.8006ZM253.554 89.9985C253.554 90.3604 253.646 90.6388 253.83 90.8336C254.018 91.0285 254.286 91.1259 254.634 91.1259C255.344 91.1259 255.699 90.7466 255.699 89.988C255.699 89.6122 255.61 89.3234 255.433 89.1216C255.259 88.9163 254.992 88.8136 254.634 88.8136C254.279 88.8136 254.009 88.9145 253.825 89.1163C253.644 89.3182 253.554 89.6122 253.554 89.9985ZM206.205 103.259C206.205 103.822 206 104.256 205.589 104.558C205.179 104.858 204.591 105.007 203.825 105.007C203.056 105.007 202.438 104.891 201.972 104.658V103.598C202.651 103.911 203.282 104.068 203.867 104.068C204.622 104.068 205 103.84 205 103.384C205 103.238 204.958 103.116 204.874 103.019C204.791 102.921 204.653 102.82 204.462 102.716C204.271 102.611 204.004 102.493 203.663 102.361C202.999 102.103 202.548 101.846 202.311 101.588C202.078 101.331 201.962 100.997 201.962 100.586C201.962 100.092 202.16 99.7092 202.557 99.4378C202.957 99.1629 203.5 99.0254 204.185 99.0254C204.864 99.0254 205.506 99.1629 206.111 99.4378L205.715 100.362C205.092 100.104 204.568 99.9754 204.144 99.9754C203.496 99.9754 203.173 100.16 203.173 100.529C203.173 100.71 203.256 100.863 203.423 100.988C203.594 101.113 203.963 101.286 204.53 101.505C205.007 101.689 205.353 101.858 205.569 102.011C205.784 102.164 205.944 102.342 206.049 102.544C206.153 102.742 206.205 102.98 206.205 103.259ZM206.659 99.1298H207.996L209.17 102.403C209.348 102.869 209.466 103.307 209.525 103.718H209.567C209.598 103.527 209.656 103.295 209.739 103.024C209.823 102.749 210.265 101.451 211.065 99.1298H212.391L209.922 105.67C209.473 106.871 208.725 107.471 207.677 107.471C207.406 107.471 207.141 107.441 206.884 107.382V106.411C207.068 106.453 207.279 106.474 207.516 106.474C208.107 106.474 208.523 106.131 208.763 105.446L208.977 104.903L206.659 99.1298ZM217.146 103.259C217.146 103.822 216.941 104.256 216.53 104.558C216.119 104.858 215.531 105.007 214.766 105.007C213.997 105.007 213.379 104.891 212.913 104.658V103.598C213.591 103.911 214.223 104.068 214.807 104.068C215.563 104.068 215.94 103.84 215.94 103.384C215.94 103.238 215.898 103.116 215.815 103.019C215.731 102.921 215.594 102.82 215.403 102.716C215.211 102.611 214.945 102.493 214.604 102.361C213.939 102.103 213.489 101.846 213.252 101.588C213.019 101.331 212.902 100.997 212.902 100.586C212.902 100.092 213.101 99.7092 213.497 99.4378C213.898 99.1629 214.44 99.0254 215.126 99.0254C215.804 99.0254 216.446 99.1629 217.052 99.4378L216.655 100.362C216.032 100.104 215.509 99.9754 215.084 99.9754C214.437 99.9754 214.113 100.16 214.113 100.529C214.113 100.71 214.197 100.863 214.364 100.988C214.534 101.113 214.903 101.286 215.47 101.505C215.947 101.689 216.293 101.858 216.509 102.011C216.725 102.164 216.885 102.342 216.989 102.544C217.094 102.742 217.146 102.98 217.146 103.259ZM220.627 104.015C220.927 104.015 221.226 103.969 221.525 103.875V104.798C221.39 104.858 221.214 104.906 220.998 104.945C220.786 104.986 220.565 105.007 220.335 105.007C219.173 105.007 218.592 104.395 218.592 103.17V100.059H217.804V99.5161L218.649 99.0672L219.067 97.8458H219.824V99.1298H221.468V100.059H219.824V103.149C219.824 103.445 219.897 103.664 220.043 103.807C220.193 103.946 220.387 104.015 220.627 104.015ZM225.205 105.007C224.307 105.007 223.604 104.746 223.096 104.224C222.592 103.699 222.34 102.977 222.34 102.058C222.34 101.115 222.574 100.374 223.044 99.8345C223.514 99.2951 224.159 99.0254 224.981 99.0254C225.743 99.0254 226.345 99.2568 226.787 99.7196C227.229 100.182 227.45 100.819 227.45 101.63V102.293H223.603C223.62 102.853 223.771 103.285 224.057 103.587C224.342 103.887 224.744 104.036 225.263 104.036C225.604 104.036 225.92 104.005 226.213 103.942C226.508 103.876 226.825 103.768 227.163 103.619V104.616C226.863 104.758 226.561 104.859 226.254 104.918C225.948 104.978 225.598 105.007 225.205 105.007ZM224.981 99.9545C224.591 99.9545 224.278 100.078 224.041 100.325C223.808 100.572 223.669 100.932 223.624 101.406H226.244C226.237 100.929 226.122 100.569 225.899 100.325C225.677 100.078 225.37 99.9545 224.981 99.9545ZM233.708 104.903H232.476V101.343C232.476 100.901 232.393 100.572 232.226 100.356C232.059 100.137 231.798 100.028 231.443 100.028C230.97 100.028 230.622 100.182 230.399 100.492C230.18 100.798 230.07 101.31 230.07 102.027V104.903H228.843V99.1298H229.804L229.976 99.8867H230.039C230.199 99.6118 230.43 99.3995 230.733 99.2499C231.039 99.1002 231.375 99.0254 231.74 99.0254C232.628 99.0254 233.216 99.3282 233.505 99.9336H233.588C233.759 99.6483 233.999 99.4256 234.308 99.2655C234.618 99.1055 234.973 99.0254 235.373 99.0254C236.062 99.0254 236.563 99.1994 236.876 99.5474C237.193 99.8954 237.351 100.426 237.351 101.139V104.903H236.125V101.343C236.125 100.901 236.04 100.572 235.869 100.356C235.702 100.137 235.441 100.028 235.086 100.028C234.609 100.028 234.26 100.177 234.037 100.477C233.818 100.772 233.708 101.228 233.708 101.844V104.903ZM245.453 104.903L245.207 104.099H245.165C244.887 104.45 244.607 104.691 244.325 104.819C244.043 104.945 243.681 105.007 243.239 105.007C242.672 105.007 242.228 104.854 241.908 104.548C241.592 104.242 241.433 103.808 241.433 103.248C241.433 102.653 241.654 102.204 242.096 101.901C242.538 101.599 243.212 101.433 244.116 101.406L245.113 101.374V101.066C245.113 100.697 245.026 100.423 244.852 100.242C244.682 100.057 244.416 99.965 244.054 99.965C243.758 99.965 243.474 100.008 243.203 100.095C242.931 100.182 242.67 100.285 242.42 100.403L242.023 99.5265C242.336 99.363 242.679 99.2394 243.051 99.1559C243.424 99.0689 243.775 99.0254 244.106 99.0254C244.84 99.0254 245.393 99.1855 245.766 99.5056C246.142 99.8258 246.329 100.329 246.329 101.014V104.903H245.453ZM243.626 104.068C244.071 104.068 244.428 103.944 244.696 103.697C244.967 103.447 245.103 103.097 245.103 102.648V102.147L244.362 102.178C243.784 102.199 243.363 102.296 243.098 102.47C242.837 102.641 242.707 102.904 242.707 103.259C242.707 103.516 242.783 103.716 242.937 103.859C243.09 103.998 243.319 104.068 243.626 104.068ZM253.12 104.903H251.888V101.353C251.888 100.908 251.798 100.576 251.617 100.356C251.44 100.137 251.156 100.028 250.766 100.028C250.248 100.028 249.868 100.181 249.628 100.487C249.388 100.793 249.268 101.306 249.268 102.027V104.903H248.042V99.1298H249.002L249.174 99.8867H249.237C249.411 99.6118 249.658 99.3995 249.978 99.2499C250.298 99.1002 250.653 99.0254 251.043 99.0254C252.428 99.0254 253.12 99.7301 253.12 101.139V104.903ZM256.774 105.007C256.054 105.007 255.492 104.746 255.088 104.224C254.684 103.702 254.483 102.97 254.483 102.027C254.483 101.08 254.686 100.344 255.093 99.8188C255.504 99.2899 256.071 99.0254 256.795 99.0254C257.554 99.0254 258.131 99.3055 258.528 99.8658H258.591C258.531 99.4517 258.502 99.1246 258.502 98.8845V96.7809H259.734V104.903H258.773L258.559 104.146H258.502C258.109 104.72 257.533 105.007 256.774 105.007ZM257.103 104.015C257.608 104.015 257.975 103.875 258.204 103.593C258.434 103.307 258.552 102.846 258.559 102.209V102.037C258.559 101.31 258.441 100.793 258.204 100.487C257.968 100.181 257.597 100.028 257.093 100.028C256.661 100.028 256.329 100.203 256.096 100.555C255.862 100.903 255.746 101.4 255.746 102.048C255.746 102.688 255.859 103.177 256.085 103.514C256.311 103.848 256.651 104.015 257.103 104.015ZM204.274 116.007C203.554 116.007 202.992 115.746 202.588 115.224C202.184 114.702 201.983 113.97 201.983 113.027C201.983 112.08 202.186 111.344 202.593 110.819C203.004 110.29 203.571 110.025 204.295 110.025C205.054 110.025 205.631 110.306 206.028 110.866H206.091C206.031 110.452 206.002 110.125 206.002 109.884V107.781H207.234V115.903H206.273L206.059 115.146H206.002C205.609 115.72 205.033 116.007 204.274 116.007ZM204.603 115.015C205.107 115.015 205.475 114.875 205.704 114.593C205.934 114.307 206.052 113.846 206.059 113.209V113.037C206.059 112.31 205.941 111.793 205.704 111.487C205.468 111.181 205.097 111.028 204.592 111.028C204.161 111.028 203.829 111.203 203.596 111.555C203.362 111.903 203.246 112.4 203.246 113.048C203.246 113.688 203.359 114.177 203.585 114.514C203.811 114.848 204.151 115.015 204.603 115.015ZM212.6 115.903L212.354 115.099H212.312C212.034 115.45 211.754 115.691 211.472 115.819C211.19 115.945 210.828 116.007 210.386 116.007C209.819 116.007 209.375 115.854 209.055 115.548C208.739 115.242 208.58 114.808 208.58 114.248C208.58 113.653 208.801 113.204 209.243 112.901C209.685 112.599 210.359 112.433 211.263 112.406L212.26 112.374V112.066C212.26 111.697 212.173 111.423 211.999 111.242C211.829 111.057 211.563 110.965 211.201 110.965C210.905 110.965 210.621 111.008 210.35 111.095C210.078 111.182 209.817 111.285 209.567 111.403L209.17 110.527C209.483 110.363 209.826 110.239 210.198 110.156C210.571 110.069 210.922 110.025 211.253 110.025C211.987 110.025 212.54 110.185 212.913 110.506C213.289 110.826 213.476 111.329 213.476 112.014V115.903H212.6ZM210.773 115.068C211.218 115.068 211.575 114.944 211.843 114.697C212.114 114.447 212.25 114.097 212.25 113.648V113.147L211.509 113.178C210.931 113.199 210.51 113.296 210.245 113.47C209.984 113.641 209.854 113.904 209.854 114.259C209.854 114.516 209.931 114.716 210.084 114.859C210.237 114.998 210.466 115.068 210.773 115.068ZM217.339 115.015C217.638 115.015 217.938 114.969 218.237 114.875V115.798C218.101 115.858 217.925 115.906 217.71 115.945C217.497 115.986 217.276 116.007 217.047 116.007C215.884 116.007 215.303 115.395 215.303 114.17V111.059H214.515V110.516L215.361 110.067L215.778 108.846H216.535V110.13H218.179V111.059H216.535V114.149C216.535 114.445 216.608 114.664 216.754 114.807C216.904 114.946 217.099 115.015 217.339 115.015ZM223.008 115.903L222.762 115.099H222.721C222.442 115.45 222.162 115.691 221.88 115.819C221.598 115.945 221.236 116.007 220.795 116.007C220.227 116.007 219.784 115.854 219.463 115.548C219.147 115.242 218.988 114.808 218.988 114.248C218.988 113.653 219.209 113.204 219.651 112.901C220.093 112.599 220.767 112.433 221.671 112.406L222.668 112.374V112.066C222.668 111.697 222.581 111.423 222.407 111.242C222.237 111.057 221.971 110.965 221.609 110.965C221.313 110.965 221.029 111.008 220.758 111.095C220.487 111.182 220.226 111.285 219.975 111.403L219.578 110.527C219.891 110.363 220.234 110.239 220.607 110.156C220.979 110.069 221.33 110.025 221.661 110.025C222.395 110.025 222.949 110.185 223.321 110.506C223.697 110.826 223.885 111.329 223.885 112.014V115.903H223.008ZM221.181 115.068C221.626 115.068 221.983 114.944 222.251 114.697C222.522 114.447 222.658 114.097 222.658 113.648V113.147L221.917 113.178C221.339 113.199 220.918 113.296 220.654 113.47C220.393 113.641 220.262 113.904 220.262 114.259C220.262 114.516 220.339 114.716 220.492 114.859C220.645 114.998 220.875 115.068 221.181 115.068ZM229.475 114.259C229.475 114.822 229.27 115.256 228.859 115.558C228.448 115.858 227.86 116.007 227.095 116.007C226.326 116.007 225.708 115.891 225.242 115.658V114.598C225.92 114.911 226.552 115.068 227.136 115.068C227.892 115.068 228.269 114.84 228.269 114.384C228.269 114.238 228.227 114.116 228.144 114.019C228.06 113.921 227.923 113.82 227.732 113.716C227.54 113.611 227.274 113.493 226.933 113.361C226.268 113.103 225.818 112.846 225.581 112.588C225.348 112.331 225.231 111.997 225.231 111.586C225.231 111.092 225.43 110.709 225.826 110.438C226.227 110.163 226.769 110.025 227.455 110.025C228.133 110.025 228.775 110.163 229.381 110.438L228.984 111.362C228.361 111.104 227.838 110.975 227.413 110.975C226.766 110.975 226.442 111.16 226.442 111.529C226.442 111.71 226.526 111.863 226.693 111.988C226.863 112.113 227.232 112.286 227.799 112.505C228.276 112.689 228.622 112.858 228.838 113.011C229.054 113.164 229.214 113.342 229.318 113.544C229.423 113.742 229.475 113.98 229.475 114.259ZM202.144 126.25C202.144 125.996 202.211 125.801 202.343 125.666C202.475 125.53 202.666 125.462 202.917 125.462C203.171 125.462 203.364 125.534 203.496 125.676C203.629 125.815 203.695 126.007 203.695 126.25C203.695 126.497 203.627 126.694 203.491 126.84C203.359 126.983 203.167 127.054 202.917 127.054C202.666 127.054 202.475 126.983 202.343 126.84C202.211 126.698 202.144 126.501 202.144 126.25ZM205.088 126.25C205.088 125.996 205.154 125.801 205.287 125.666C205.419 125.53 205.61 125.462 205.861 125.462C206.115 125.462 206.308 125.534 206.44 125.676C206.572 125.815 206.639 126.007 206.639 126.25C206.639 126.497 206.571 126.694 206.435 126.84C206.303 126.983 206.111 127.054 205.861 127.054C205.61 127.054 205.419 126.983 205.287 126.84C205.154 126.698 205.088 126.501 205.088 126.25ZM208.032 126.25C208.032 125.996 208.098 125.801 208.231 125.666C208.363 125.53 208.554 125.462 208.805 125.462C209.059 125.462 209.252 125.534 209.384 125.676C209.516 125.815 209.583 126.007 209.583 126.25C209.583 126.497 209.515 126.694 209.379 126.84C209.247 126.983 209.055 127.054 208.805 127.054C208.554 127.054 208.363 126.983 208.231 126.84C208.098 126.698 208.032 126.501 208.032 126.25Z" fill="#547BEF"/>
</g>
</g>
<defs>
<filter id="filter0_d" x="0" y="0" width="402.9" height="624.489" filterUnits="userSpaceOnUse" color-interpolation-filters="sRGB">
<feFlood flood-opacity="0" result="BackgroundImageFix"/>
<feColorMatrix in="SourceAlpha" type="matrix" values="0 0 0 0 0 0 0 0 0 0 0 0 0 0 0 0 0 0 127 0"/>
<feOffset dy="4"/>
<feGaussianBlur stdDeviation="29.5"/>
<feColorMatrix type="matrix" values="0 0 0 0 0 0 0 0 0 0 0 0 0 0 0 0 0 0 0.25 0"/>
<feBlend mode="normal" in2="BackgroundImageFix" result="effect1_dropShadow"/>
<feBlend mode="normal" in="SourceGraphic" in2="effect1_dropShadow" result="shape"/>
</filter>
<linearGradient id="paint0_linear" x1="201.45" y1="55" x2="201.45" y2="561.489" gradientUnits="userSpaceOnUse">
<stop stop-color="#96B4F0"/>
<stop offset="0.302083" stop-color="#96B4F0"/>
<stop offset="1" stop-color="#A2DAFA"/>
</linearGradient>
<radialGradient id="paint1_angular" cx="0" cy="0" r="1" gradientUnits="userSpaceOnUse" gradientTransform="translate(201.45 284.847) rotate(-90) scale(32.6878 33.548)">
<stop stop-color="white"/>
<stop offset="0.826091" stop-color="white"/>
<stop offset="0.827997" stop-color="white" stop-opacity="0"/>
<stop offset="1" stop-color="white" stop-opacity="0"/>
</radialGradient>
</defs>
</svg>
