<svg width="23" height="42" viewBox="0 0 23 42" fill="none" xmlns="http://www.w3.org/2000/svg">
<path d="M15.6358 4.24467C15.6358 6.58894 13.7354 8.48934 11.3912 8.48934C9.04689 8.48934 7.14648 6.58894 7.14648 4.24467C7.14648 1.9004 9.04689 0 11.3912 0C13.7354 0 15.6358 1.9004 15.6358 4.24467Z" fill="#66C99C"/>
<path d="M15.6358 37.7544C15.6358 40.0987 13.7354 41.9991 11.3912 41.9991C9.04689 41.9991 7.14648 40.0987 7.14648 37.7544C7.14648 35.4102 9.04689 33.5098 11.3912 33.5098C13.7354 33.5098 15.6358 35.4102 15.6358 37.7544Z" fill="#EA4A98"/>
<path fill-rule="evenodd" clip-rule="evenodd" d="M17.0914 6.81782C17.3703 6.30412 18.0295 6.06762 18.4867 6.43178C21.1075 8.51925 22.7872 11.738 22.7872 15.349C22.7872 15.7916 22.762 16.2283 22.7128 16.6578C22.6284 17.3961 21.6998 17.5887 21.1828 17.055C18.948 14.748 15.905 13.2285 12.5104 12.9532C11.8955 12.9033 11.3936 13.4082 11.3936 14.0251C11.3936 14.642 11.8952 15.1364 12.5092 15.1961C16.2081 15.5555 19.389 17.6836 21.1956 20.724C21.2755 20.8586 21.2755 21.0261 21.1955 21.1607C19.2097 24.5027 15.5633 26.7426 11.3936 26.7426C5.10098 26.7426 0 21.6414 0 15.349C0 11.738 1.67973 8.51925 4.30048 6.43178C4.75767 6.06762 5.41692 6.30412 5.69576 6.81782C6.79257 8.83843 8.93286 10.2107 11.3936 10.2107C13.8543 10.2107 15.9946 8.83843 17.0914 6.81782Z" fill="#66C99C"/>
<path fill-rule="evenodd" clip-rule="evenodd" d="M11.3945 31.7737C8.93375 31.7737 6.79346 33.1459 5.69665 35.1666C5.41781 35.6803 4.75857 35.9168 4.30137 35.5526C1.68062 33.4651 0.000891569 30.2464 0.000891884 26.6354C0.000891923 26.1928 0.0261322 25.7561 0.0752514 25.3266C0.159691 24.5883 1.08825 24.3956 1.60528 24.9294C3.84005 27.2364 6.88305 28.7558 10.2777 29.0312C10.8926 29.0811 11.3945 28.5762 11.3945 27.9593C11.3945 27.3424 10.8929 26.848 10.2789 26.7883C6.58002 26.4289 3.3991 24.3007 1.59253 21.2604C1.51256 21.1258 1.51257 20.9583 1.59254 20.8237C3.57837 17.4816 7.22482 15.2418 11.3945 15.2418C17.6871 15.2418 22.7881 20.343 22.7881 26.6354C22.7881 30.2464 21.1084 33.4651 18.4876 35.5526C18.0304 35.9168 17.3712 35.6803 17.0923 35.1666C15.9955 33.1459 13.8552 31.7737 11.3945 31.7737Z" fill="#EA4A98"/>
<path fill-rule="evenodd" clip-rule="evenodd" d="M1.46094 20.9999C3.41455 17.5328 7.13087 15.1914 11.3941 15.1914C15.6572 15.1914 19.3735 17.5328 21.3272 20.9999C19.3735 24.467 15.6572 26.8084 11.3941 26.8084C7.13087 26.8084 3.41455 24.467 1.46094 20.9999Z" fill="#505AE0"/>
</svg>
