<svg width="95" height="18" viewBox="0 0 95 18" fill="none" xmlns="http://www.w3.org/2000/svg">
<path fill-rule="evenodd" clip-rule="evenodd" d="M6.43427 0.511719C9.2953 0.511719 10.8555 1.81254 12.1828 2.91915L12.2428 2.96917L10.2322 5.20322C10.0996 5.13694 9.94247 5.05592 9.76806 4.96599C8.76663 4.44961 7.19534 3.63939 6.43427 3.63939C5.31725 3.63939 4.20022 4.53301 4.20022 5.20322C4.20022 6.09684 4.64703 6.54365 7.5513 7.43727C10.4556 8.33089 12.913 9.67132 12.913 12.5756C12.913 15.4798 10.2322 17.2671 6.43427 17.2671C3.39597 17.2671 1.14703 15.4798 0.402344 14.5862L2.41299 12.3522C2.78533 12.9479 4.11086 14.1394 6.43427 14.1394C8.75768 14.1394 9.33853 13.0224 9.33853 12.5756C9.33853 12.1288 9.11513 11.4586 6.43427 10.5649C3.75342 9.67132 1.07256 8.33089 1.07256 5.65003C1.07256 2.96917 3.53001 0.511719 6.43427 0.511719ZM16.7109 1.18193L22.296 17.0437H25.2003L28.7747 6.32024L32.5726 17.0437H35.4769L41.062 1.18193H37.0407L33.6897 11.682L30.1152 1.18193H27.6577L24.0832 11.682L20.7322 1.18193H16.7109ZM43.9663 1.18193L49.9982 10.3415V16.8203H53.3493V10.3415L48.211 1.18193H43.9663ZM55.5833 1.18193L53.1259 4.97981L54.9131 8.10748L59.3812 1.18193H55.5833ZM66.3067 1.18193H62.5089L68.7642 16.8203H72.1153L78.3706 1.18193H74.5727L70.5514 12.1288L66.3067 1.18193ZM83.0621 1.18193V16.8203H94.4557V13.6926H86.6366V1.18193H83.0621Z" fill="white"/>
</svg>
